<mxfile host="app.diagrams.net" modified="2023-08-27T05:37:44.444Z" agent="Mozilla/5.0 (Windows NT 10.0; Win64; x64) AppleWebKit/537.36 (KHTML, like Gecko) Chrome/116.0.0.0 Safari/537.36" version="21.6.9" etag="KKODSo2OQg0h8I_mVnO0" type="device">
  <diagram id="-GrPzJMxOl5cILJKljhI" name="페이지-1">
    <mxGraphModel dx="1221" dy="638" grid="0" gridSize="10" guides="1" tooltips="1" connect="1" arrows="1" fold="1" page="0" pageScale="1" pageWidth="827" pageHeight="1169" math="0" shadow="0">
      <root>
        <mxCell id="0" />
        <mxCell id="1" parent="0" />
        <mxCell id="Rnmd6pnbZlGe_Y1eaghR-26" value="PPG" style="rounded=1;whiteSpace=wrap;html=1;flipV=1;flipH=0;rotation=-180;" vertex="1" parent="1">
          <mxGeometry x="774" y="191" width="60" height="60" as="geometry" />
        </mxCell>
        <mxCell id="Rnmd6pnbZlGe_Y1eaghR-27" value="PPG" style="rounded=1;whiteSpace=wrap;html=1;flipV=1;flipH=0;rotation=-180;" vertex="1" parent="1">
          <mxGeometry x="704" y="191" width="60" height="60" as="geometry" />
        </mxCell>
        <mxCell id="Rnmd6pnbZlGe_Y1eaghR-29" value="PPG" style="rounded=1;whiteSpace=wrap;html=1;flipV=1;flipH=0;rotation=-180;" vertex="1" parent="1">
          <mxGeometry x="634" y="191" width="60" height="60" as="geometry" />
        </mxCell>
        <mxCell id="Rnmd6pnbZlGe_Y1eaghR-28" value="PPG" style="rounded=1;whiteSpace=wrap;html=1;flipV=1;flipH=0;rotation=-180;" vertex="1" parent="1">
          <mxGeometry x="564" y="191" width="60" height="60" as="geometry" />
        </mxCell>
        <mxCell id="Rnmd6pnbZlGe_Y1eaghR-34" value="PPG" style="rounded=1;whiteSpace=wrap;html=1;flipV=1;flipH=0;rotation=-180;" vertex="1" parent="1">
          <mxGeometry x="214" y="191" width="60" height="60" as="geometry" />
        </mxCell>
        <mxCell id="Rnmd6pnbZlGe_Y1eaghR-33" value="PPG" style="rounded=1;whiteSpace=wrap;html=1;flipV=1;flipH=0;rotation=-180;" vertex="1" parent="1">
          <mxGeometry x="284" y="191" width="60" height="60" as="geometry" />
        </mxCell>
        <mxCell id="Rnmd6pnbZlGe_Y1eaghR-32" value="PPG" style="rounded=1;whiteSpace=wrap;html=1;flipV=1;flipH=0;rotation=-180;" vertex="1" parent="1">
          <mxGeometry x="354" y="191" width="60" height="60" as="geometry" />
        </mxCell>
        <mxCell id="Rnmd6pnbZlGe_Y1eaghR-31" value="PPG" style="rounded=1;whiteSpace=wrap;html=1;flipV=1;flipH=0;rotation=-180;" vertex="1" parent="1">
          <mxGeometry x="424" y="191" width="60" height="60" as="geometry" />
        </mxCell>
        <mxCell id="Rnmd6pnbZlGe_Y1eaghR-30" value="PPG" style="rounded=1;whiteSpace=wrap;html=1;flipV=1;flipH=0;rotation=-180;" vertex="1" parent="1">
          <mxGeometry x="494" y="191" width="60" height="60" as="geometry" />
        </mxCell>
        <mxCell id="Rnmd6pnbZlGe_Y1eaghR-3" value="PPG" style="rounded=1;whiteSpace=wrap;html=1;" vertex="1" parent="1">
          <mxGeometry x="214" y="191" width="60" height="60" as="geometry" />
        </mxCell>
        <mxCell id="Rnmd6pnbZlGe_Y1eaghR-4" value="PPG" style="rounded=1;whiteSpace=wrap;html=1;" vertex="1" parent="1">
          <mxGeometry x="284" y="191" width="60" height="60" as="geometry" />
        </mxCell>
        <mxCell id="Rnmd6pnbZlGe_Y1eaghR-5" value="PPG" style="rounded=1;whiteSpace=wrap;html=1;" vertex="1" parent="1">
          <mxGeometry x="424" y="191" width="60" height="60" as="geometry" />
        </mxCell>
        <mxCell id="Rnmd6pnbZlGe_Y1eaghR-6" value="PPG" style="rounded=1;whiteSpace=wrap;html=1;" vertex="1" parent="1">
          <mxGeometry x="354" y="191" width="60" height="60" as="geometry" />
        </mxCell>
        <mxCell id="Rnmd6pnbZlGe_Y1eaghR-7" value="PPG" style="rounded=1;whiteSpace=wrap;html=1;" vertex="1" parent="1">
          <mxGeometry x="494" y="191" width="60" height="60" as="geometry" />
        </mxCell>
        <mxCell id="Rnmd6pnbZlGe_Y1eaghR-8" value="PPG" style="rounded=1;whiteSpace=wrap;html=1;" vertex="1" parent="1">
          <mxGeometry x="564" y="191" width="60" height="60" as="geometry" />
        </mxCell>
        <mxCell id="Rnmd6pnbZlGe_Y1eaghR-9" value="PPG" style="rounded=1;whiteSpace=wrap;html=1;" vertex="1" parent="1">
          <mxGeometry x="634" y="191" width="60" height="60" as="geometry" />
        </mxCell>
        <mxCell id="Rnmd6pnbZlGe_Y1eaghR-10" value="PPG" style="rounded=1;whiteSpace=wrap;html=1;" vertex="1" parent="1">
          <mxGeometry x="704" y="191" width="60" height="60" as="geometry" />
        </mxCell>
        <mxCell id="Rnmd6pnbZlGe_Y1eaghR-11" value="PPG" style="rounded=1;whiteSpace=wrap;html=1;" vertex="1" parent="1">
          <mxGeometry x="774" y="191" width="60" height="60" as="geometry" />
        </mxCell>
        <mxCell id="Rnmd6pnbZlGe_Y1eaghR-14" style="edgeStyle=orthogonalEdgeStyle;rounded=0;orthogonalLoop=1;jettySize=auto;html=1;endArrow=none;endFill=0;" edge="1" parent="1" source="Rnmd6pnbZlGe_Y1eaghR-12" target="Rnmd6pnbZlGe_Y1eaghR-5">
          <mxGeometry relative="1" as="geometry">
            <Array as="points">
              <mxPoint x="471" y="161" />
              <mxPoint x="454" y="161" />
            </Array>
          </mxGeometry>
        </mxCell>
        <mxCell id="Rnmd6pnbZlGe_Y1eaghR-15" style="edgeStyle=orthogonalEdgeStyle;rounded=0;orthogonalLoop=1;jettySize=auto;html=1;endArrow=none;endFill=0;" edge="1" parent="1" source="Rnmd6pnbZlGe_Y1eaghR-12" target="Rnmd6pnbZlGe_Y1eaghR-3">
          <mxGeometry relative="1" as="geometry">
            <Array as="points">
              <mxPoint x="471" y="161" />
              <mxPoint x="244" y="161" />
            </Array>
          </mxGeometry>
        </mxCell>
        <mxCell id="Rnmd6pnbZlGe_Y1eaghR-18" style="edgeStyle=orthogonalEdgeStyle;rounded=0;orthogonalLoop=1;jettySize=auto;html=1;entryX=0.5;entryY=0;entryDx=0;entryDy=0;endArrow=none;endFill=0;" edge="1" parent="1" source="Rnmd6pnbZlGe_Y1eaghR-12" target="Rnmd6pnbZlGe_Y1eaghR-4">
          <mxGeometry relative="1" as="geometry">
            <Array as="points">
              <mxPoint x="471" y="161" />
              <mxPoint x="314" y="161" />
            </Array>
          </mxGeometry>
        </mxCell>
        <mxCell id="Rnmd6pnbZlGe_Y1eaghR-19" style="edgeStyle=orthogonalEdgeStyle;rounded=0;orthogonalLoop=1;jettySize=auto;html=1;entryX=0.5;entryY=0;entryDx=0;entryDy=0;endArrow=none;endFill=0;" edge="1" parent="1" source="Rnmd6pnbZlGe_Y1eaghR-12" target="Rnmd6pnbZlGe_Y1eaghR-7">
          <mxGeometry relative="1" as="geometry">
            <Array as="points">
              <mxPoint x="471" y="161" />
              <mxPoint x="524" y="161" />
            </Array>
          </mxGeometry>
        </mxCell>
        <mxCell id="Rnmd6pnbZlGe_Y1eaghR-20" style="edgeStyle=orthogonalEdgeStyle;rounded=0;orthogonalLoop=1;jettySize=auto;html=1;entryX=0.5;entryY=0;entryDx=0;entryDy=0;endArrow=none;endFill=0;" edge="1" parent="1" source="Rnmd6pnbZlGe_Y1eaghR-12" target="Rnmd6pnbZlGe_Y1eaghR-8">
          <mxGeometry relative="1" as="geometry">
            <Array as="points">
              <mxPoint x="471" y="161" />
              <mxPoint x="594" y="161" />
            </Array>
          </mxGeometry>
        </mxCell>
        <mxCell id="Rnmd6pnbZlGe_Y1eaghR-21" style="edgeStyle=orthogonalEdgeStyle;rounded=0;orthogonalLoop=1;jettySize=auto;html=1;entryX=0.5;entryY=0;entryDx=0;entryDy=0;endArrow=none;endFill=0;" edge="1" parent="1" source="Rnmd6pnbZlGe_Y1eaghR-12" target="Rnmd6pnbZlGe_Y1eaghR-9">
          <mxGeometry relative="1" as="geometry">
            <Array as="points">
              <mxPoint x="471" y="161" />
              <mxPoint x="664" y="161" />
            </Array>
          </mxGeometry>
        </mxCell>
        <mxCell id="Rnmd6pnbZlGe_Y1eaghR-22" style="edgeStyle=orthogonalEdgeStyle;rounded=0;orthogonalLoop=1;jettySize=auto;html=1;entryX=0.5;entryY=0;entryDx=0;entryDy=0;endArrow=none;endFill=0;" edge="1" parent="1" source="Rnmd6pnbZlGe_Y1eaghR-12" target="Rnmd6pnbZlGe_Y1eaghR-10">
          <mxGeometry relative="1" as="geometry">
            <Array as="points">
              <mxPoint x="471" y="161" />
              <mxPoint x="734" y="161" />
            </Array>
          </mxGeometry>
        </mxCell>
        <mxCell id="Rnmd6pnbZlGe_Y1eaghR-23" style="edgeStyle=orthogonalEdgeStyle;rounded=0;orthogonalLoop=1;jettySize=auto;html=1;endArrow=none;endFill=0;" edge="1" parent="1" source="Rnmd6pnbZlGe_Y1eaghR-12" target="Rnmd6pnbZlGe_Y1eaghR-11">
          <mxGeometry relative="1" as="geometry">
            <Array as="points">
              <mxPoint x="471" y="161" />
              <mxPoint x="804" y="161" />
            </Array>
          </mxGeometry>
        </mxCell>
        <mxCell id="Rnmd6pnbZlGe_Y1eaghR-25" style="edgeStyle=orthogonalEdgeStyle;rounded=0;orthogonalLoop=1;jettySize=auto;html=1;entryX=0.5;entryY=0;entryDx=0;entryDy=0;endArrow=none;endFill=0;" edge="1" parent="1" source="Rnmd6pnbZlGe_Y1eaghR-12" target="Rnmd6pnbZlGe_Y1eaghR-6">
          <mxGeometry relative="1" as="geometry">
            <Array as="points">
              <mxPoint x="471" y="161" />
              <mxPoint x="384" y="161" />
            </Array>
          </mxGeometry>
        </mxCell>
        <mxCell id="Rnmd6pnbZlGe_Y1eaghR-12" value="multiplicand" style="text;html=1;strokeColor=none;fillColor=none;align=center;verticalAlign=middle;whiteSpace=wrap;rounded=0;" vertex="1" parent="1">
          <mxGeometry x="427" y="38" width="87" height="30" as="geometry" />
        </mxCell>
        <mxCell id="Rnmd6pnbZlGe_Y1eaghR-24" style="edgeStyle=orthogonalEdgeStyle;rounded=0;orthogonalLoop=1;jettySize=auto;html=1;endArrow=none;endFill=0;" edge="1" parent="1" source="Rnmd6pnbZlGe_Y1eaghR-13">
          <mxGeometry relative="1" as="geometry">
            <mxPoint x="577.5" y="160.22223917643237" as="targetPoint" />
          </mxGeometry>
        </mxCell>
        <mxCell id="Rnmd6pnbZlGe_Y1eaghR-13" value="multiplier" style="text;html=1;strokeColor=none;fillColor=none;align=center;verticalAlign=middle;whiteSpace=wrap;rounded=0;" vertex="1" parent="1">
          <mxGeometry x="534" y="38" width="87" height="30" as="geometry" />
        </mxCell>
        <mxCell id="Rnmd6pnbZlGe_Y1eaghR-2" value="" style="rounded=1;whiteSpace=wrap;html=1;fillColor=none;" vertex="1" parent="1">
          <mxGeometry x="183" y="133" width="682" height="262" as="geometry" />
        </mxCell>
        <mxCell id="Rnmd6pnbZlGe_Y1eaghR-35" style="edgeStyle=orthogonalEdgeStyle;rounded=0;orthogonalLoop=1;jettySize=auto;html=1;endArrow=none;endFill=0;" edge="1" parent="1" source="Rnmd6pnbZlGe_Y1eaghR-44" target="Rnmd6pnbZlGe_Y1eaghR-28">
          <mxGeometry relative="1" as="geometry">
            <Array as="points">
              <mxPoint x="524" y="344" />
              <mxPoint x="595" y="344" />
            </Array>
          </mxGeometry>
        </mxCell>
        <mxCell id="Rnmd6pnbZlGe_Y1eaghR-36" style="edgeStyle=orthogonalEdgeStyle;rounded=0;orthogonalLoop=1;jettySize=auto;html=1;endArrow=none;endFill=0;" edge="1" parent="1" source="Rnmd6pnbZlGe_Y1eaghR-44" target="Rnmd6pnbZlGe_Y1eaghR-26">
          <mxGeometry relative="1" as="geometry">
            <Array as="points">
              <mxPoint x="524" y="344" />
              <mxPoint x="805" y="344" />
            </Array>
          </mxGeometry>
        </mxCell>
        <mxCell id="Rnmd6pnbZlGe_Y1eaghR-37" style="edgeStyle=orthogonalEdgeStyle;rounded=0;orthogonalLoop=1;jettySize=auto;html=1;entryX=0.5;entryY=0;entryDx=0;entryDy=0;endArrow=none;endFill=0;" edge="1" parent="1" source="Rnmd6pnbZlGe_Y1eaghR-44" target="Rnmd6pnbZlGe_Y1eaghR-27">
          <mxGeometry relative="1" as="geometry">
            <Array as="points">
              <mxPoint x="578" y="344" />
              <mxPoint x="735" y="344" />
            </Array>
          </mxGeometry>
        </mxCell>
        <mxCell id="Rnmd6pnbZlGe_Y1eaghR-38" style="edgeStyle=orthogonalEdgeStyle;rounded=0;orthogonalLoop=1;jettySize=auto;html=1;entryX=0.5;entryY=0;entryDx=0;entryDy=0;endArrow=none;endFill=0;" edge="1" parent="1" source="Rnmd6pnbZlGe_Y1eaghR-44" target="Rnmd6pnbZlGe_Y1eaghR-30">
          <mxGeometry relative="1" as="geometry">
            <Array as="points">
              <mxPoint x="524" y="411" />
              <mxPoint x="524" y="411" />
            </Array>
          </mxGeometry>
        </mxCell>
        <mxCell id="Rnmd6pnbZlGe_Y1eaghR-39" style="edgeStyle=orthogonalEdgeStyle;rounded=0;orthogonalLoop=1;jettySize=auto;html=1;entryX=0.5;entryY=0;entryDx=0;entryDy=0;endArrow=none;endFill=0;" edge="1" parent="1" source="Rnmd6pnbZlGe_Y1eaghR-44" target="Rnmd6pnbZlGe_Y1eaghR-31">
          <mxGeometry relative="1" as="geometry">
            <Array as="points">
              <mxPoint x="524" y="344" />
              <mxPoint x="454" y="344" />
            </Array>
          </mxGeometry>
        </mxCell>
        <mxCell id="Rnmd6pnbZlGe_Y1eaghR-40" style="edgeStyle=orthogonalEdgeStyle;rounded=0;orthogonalLoop=1;jettySize=auto;html=1;entryX=0.5;entryY=0;entryDx=0;entryDy=0;endArrow=none;endFill=0;" edge="1" parent="1" source="Rnmd6pnbZlGe_Y1eaghR-44" target="Rnmd6pnbZlGe_Y1eaghR-32">
          <mxGeometry relative="1" as="geometry">
            <Array as="points">
              <mxPoint x="524" y="344" />
              <mxPoint x="384" y="344" />
            </Array>
          </mxGeometry>
        </mxCell>
        <mxCell id="Rnmd6pnbZlGe_Y1eaghR-41" style="edgeStyle=orthogonalEdgeStyle;rounded=0;orthogonalLoop=1;jettySize=auto;html=1;entryX=0.5;entryY=0;entryDx=0;entryDy=0;endArrow=none;endFill=0;" edge="1" parent="1" source="Rnmd6pnbZlGe_Y1eaghR-44" target="Rnmd6pnbZlGe_Y1eaghR-33">
          <mxGeometry relative="1" as="geometry">
            <Array as="points">
              <mxPoint x="524" y="344" />
              <mxPoint x="314" y="344" />
            </Array>
          </mxGeometry>
        </mxCell>
        <mxCell id="Rnmd6pnbZlGe_Y1eaghR-42" style="edgeStyle=orthogonalEdgeStyle;rounded=0;orthogonalLoop=1;jettySize=auto;html=1;endArrow=none;endFill=0;" edge="1" parent="1" source="Rnmd6pnbZlGe_Y1eaghR-44" target="Rnmd6pnbZlGe_Y1eaghR-34">
          <mxGeometry relative="1" as="geometry">
            <Array as="points">
              <mxPoint x="524" y="344" />
              <mxPoint x="245" y="344" />
            </Array>
          </mxGeometry>
        </mxCell>
        <mxCell id="Rnmd6pnbZlGe_Y1eaghR-43" style="edgeStyle=orthogonalEdgeStyle;rounded=0;orthogonalLoop=1;jettySize=auto;html=1;entryX=0.5;entryY=0;entryDx=0;entryDy=0;endArrow=none;endFill=0;" edge="1" parent="1" source="Rnmd6pnbZlGe_Y1eaghR-44" target="Rnmd6pnbZlGe_Y1eaghR-29">
          <mxGeometry relative="1" as="geometry">
            <Array as="points">
              <mxPoint x="578" y="344" />
              <mxPoint x="665" y="344" />
            </Array>
          </mxGeometry>
        </mxCell>
        <mxCell id="Rnmd6pnbZlGe_Y1eaghR-44" value="O14~O0" style="text;html=1;strokeColor=none;fillColor=none;align=center;verticalAlign=middle;whiteSpace=wrap;rounded=0;flipV=1;flipH=0;rotation=0;" vertex="1" parent="1">
          <mxGeometry x="480.5" y="477" width="87" height="30" as="geometry" />
        </mxCell>
        <mxCell id="Rnmd6pnbZlGe_Y1eaghR-45" style="edgeStyle=orthogonalEdgeStyle;rounded=0;orthogonalLoop=1;jettySize=auto;html=1;endArrow=none;endFill=0;" edge="1" parent="1">
          <mxGeometry relative="1" as="geometry">
            <mxPoint x="470" y="374" as="targetPoint" />
            <mxPoint x="470.4926108374384" y="374" as="sourcePoint" />
          </mxGeometry>
        </mxCell>
      </root>
    </mxGraphModel>
  </diagram>
</mxfile>
